<svg width="30" height="28" viewBox="0 0 30 28" fill="none" xmlns="http://www.w3.org/2000/svg">
<path d="M19.0909 0H6.81818C5.68636 0 4.71818 0.681818 4.30909 1.66364L0.190909 11.2773C0.0681818 11.5909 0 11.9182 0 12.2727V15C0 16.5 1.22727 17.7273 2.72727 17.7273H11.3318L10.0364 23.9591L9.99545 24.3955C9.99545 24.9545 10.2273 25.4727 10.5955 25.8409L12.0409 27.2727L21.0273 18.2864C21.5182 17.7955 21.8182 17.1136 21.8182 16.3636V2.72727C21.8182 1.22727 20.5909 0 19.0909 0ZM24.5455 0V16.3636H30V0H24.5455Z" fill="#4E7149"/>
</svg>
