<svg width="30" height="27" viewBox="0 0 30 27" fill="none" xmlns="http://www.w3.org/2000/svg">
<path d="M29.2742 5.50687C28.8087 4.42909 28.1375 3.45243 27.2983 2.63154C26.4583 1.8082 25.4681 1.15391 24.3813 0.704234C23.2543 0.236101 22.0456 -0.00351672 20.8253 -0.000708013C19.1133 -0.000708013 17.443 0.468096 15.9914 1.35361C15.6442 1.56544 15.3143 1.79811 15.0017 2.05161C14.6892 1.79811 14.3593 1.56544 14.012 1.35361C12.5605 0.468096 10.8901 -0.000708013 9.17813 -0.000708013C7.94535 -0.000708013 6.75077 0.23543 5.62217 0.704234C4.53177 1.15567 3.54902 1.80505 2.70517 2.63154C1.86479 3.4515 1.19346 4.4284 0.72925 5.50687C0.246556 6.62852 0 7.81963 0 9.04547C0 10.2018 0.236138 11.4068 0.704942 12.6327C1.09735 13.6571 1.65991 14.7197 2.37874 15.7928C3.51776 17.4909 5.08392 19.2619 7.02858 21.0573C10.2512 24.0333 13.4425 26.0891 13.5779 26.1724L14.401 26.7003C14.7656 26.9329 15.2344 26.9329 15.599 26.7003L16.422 26.1724C16.5575 26.0856 19.7453 24.0333 22.9714 21.0573C24.916 19.2619 26.4822 17.4909 27.6212 15.7928C28.3401 14.7197 28.9061 13.6571 29.295 12.6327C29.7638 11.4068 30 10.2018 30 9.04547C30.0034 7.81963 29.7569 6.62852 29.2742 5.50687V5.50687ZM15.0017 23.9534C15.0017 23.9534 2.63919 16.0324 2.63919 9.04547C2.63919 5.50687 5.56661 2.63848 9.17813 2.63848C11.7166 2.63848 13.9183 4.05531 15.0017 6.12499C16.0852 4.05531 18.2868 2.63848 20.8253 2.63848C24.4368 2.63848 27.3642 5.50687 27.3642 9.04547C27.3642 16.0324 15.0017 23.9534 15.0017 23.9534Z" fill="#4E7149"/>
</svg>
