<svg width="30" height="28" viewBox="0 0 30 28" fill="none" xmlns="http://www.w3.org/2000/svg">
<path d="M0 27.2727H5.45455V10.9091H0V27.2727ZM30 12.2727C30 10.7727 28.7727 9.54545 27.2727 9.54545H18.6682L19.9636 3.31364L20.0045 2.87727C20.0045 2.31818 19.7727 1.8 19.4045 1.43182L17.9591 0L8.98636 8.98636C8.48182 9.47727 8.18182 10.1591 8.18182 10.9091V24.5455C8.18182 26.0455 9.40909 27.2727 10.9091 27.2727H23.1818C24.3136 27.2727 25.2818 26.5909 25.6909 25.6091L29.8091 15.9955C29.9318 15.6818 30 15.3545 30 15V12.2727Z" fill="#4E7149"/>
</svg>
